<mxfile host="app.diagrams.net" modified="2023-06-07T06:47:17.459Z" agent="Mozilla/5.0 (Windows NT 10.0; Win64; x64) AppleWebKit/537.36 (KHTML, like Gecko) Chrome/112.0.0.0 Safari/537.36 Edg/112.0.1722.64" version="21.3.7" etag="VoXyoXIU4guPLtnB4lt_" type="github">
  <diagram name="第 1 页" id="w9xl-TG2k7LFjIPjqJEN">
    <mxGraphModel>
      <root>
        <mxCell id="0" />
        <mxCell id="1" parent="0" />
      </root>
    </mxGraphModel>
  </diagram>
</mxfile>
